<mxfile host="app.diagrams.net" agent="Mozilla/5.0 (Windows NT 10.0; Win64; x64) AppleWebKit/537.36 (KHTML, like Gecko) Chrome/136.0.0.0 Safari/537.36" version="27.1.1">
  <diagram name="Page-1" id="DIBcZ52hSFuPhpnZTQoB">
    <mxGraphModel dx="2605" dy="1450" grid="1" gridSize="10" guides="1" tooltips="1" connect="1" arrows="1" fold="1" page="1" pageScale="1" pageWidth="850" pageHeight="1100" background="light-dark(#FFFFFF,#FFFFFF)" math="0" shadow="0">
      <root>
        <mxCell id="0" />
        <mxCell id="1" parent="0" />
        <mxCell id="_ydNGUtrwnxu__iHTs8E-2" value="User" style="swimlane;fontStyle=0;childLayout=stackLayout;horizontal=1;startSize=30;horizontalStack=0;resizeParent=1;resizeParentMax=0;resizeLast=0;collapsible=1;marginBottom=0;whiteSpace=wrap;html=1;strokeColor=light-dark(#000000,#000000);fillColor=light-dark(#FFFFFF,#FFFFFF);fontColor=light-dark(#000000,#000000);" parent="1" vertex="1">
          <mxGeometry x="365" y="445" width="280" height="400" as="geometry" />
        </mxCell>
        <mxCell id="_ydNGUtrwnxu__iHTs8E-4" value="- user_id: Int&lt;div&gt;- f_name: String&lt;/div&gt;&lt;div&gt;- l_name: String&lt;/div&gt;&lt;div&gt;- username: String&lt;/div&gt;&lt;div&gt;- email: String&lt;/div&gt;&lt;div&gt;- password: String&lt;/div&gt;&lt;div&gt;- address: String&lt;/div&gt;&lt;div&gt;- phone_number: String&lt;/div&gt;" style="text;strokeColor=light-dark(#000000,#000000);fillColor=light-dark(#FFFFFF,#FFFFFF);align=left;verticalAlign=middle;spacingLeft=4;spacingRight=4;overflow=hidden;points=[[0,0.5],[1,0.5]];portConstraint=eastwest;rotatable=0;whiteSpace=wrap;html=1;fontColor=light-dark(#000000,#000000);" parent="_ydNGUtrwnxu__iHTs8E-2" vertex="1">
          <mxGeometry y="30" width="280" height="130" as="geometry" />
        </mxCell>
        <mxCell id="_ydNGUtrwnxu__iHTs8E-8" value="+ getuser_id()&lt;div&gt;+ setuser_id(Int user_id)&lt;/div&gt;&lt;div&gt;+ getfirstname()&lt;div&gt;+ setfirstname(String f_name)&lt;/div&gt;&lt;div&gt;+ getlastname()&lt;div&gt;+ setlastname(String l_name)&lt;/div&gt;&lt;div&gt;+ getusername()&lt;div&gt;+ setusername(String username)&lt;/div&gt;&lt;div&gt;+ getemail()&lt;div&gt;+ setemail(String email)&lt;/div&gt;&lt;div&gt;+ getpassword()&lt;div&gt;+ setpassword(String password)&lt;/div&gt;&lt;div&gt;+ getaddress()&lt;div&gt;+ setaddress(String address)&lt;/div&gt;&lt;div&gt;+ getphone_number()&lt;div&gt;+ setphone_number(String phone_number)&lt;/div&gt;&lt;div&gt;&lt;br&gt;&lt;/div&gt;&lt;/div&gt;&lt;/div&gt;&lt;/div&gt;&lt;/div&gt;&lt;/div&gt;&lt;/div&gt;&lt;/div&gt;" style="text;strokeColor=light-dark(#000000,#000000);fillColor=light-dark(#FFFFFF,#FFFFFF);align=left;verticalAlign=middle;spacingLeft=4;spacingRight=4;overflow=hidden;points=[[0,0.5],[1,0.5]];portConstraint=eastwest;rotatable=0;whiteSpace=wrap;html=1;fontColor=light-dark(#000000,#000000);" parent="_ydNGUtrwnxu__iHTs8E-2" vertex="1">
          <mxGeometry y="160" width="280" height="240" as="geometry" />
        </mxCell>
        <mxCell id="_ydNGUtrwnxu__iHTs8E-9" value="Cart" style="swimlane;fontStyle=0;childLayout=stackLayout;horizontal=1;startSize=30;horizontalStack=0;resizeParent=1;resizeParentMax=0;resizeLast=0;collapsible=1;marginBottom=0;whiteSpace=wrap;html=1;strokeColor=light-dark(#000000,#000000);fillColor=light-dark(#FFFFFF,#FFFFFF);fontColor=light-dark(#000000,#000000);" parent="1" vertex="1">
          <mxGeometry x="20" y="1015" width="230" height="280" as="geometry" />
        </mxCell>
        <mxCell id="_ydNGUtrwnxu__iHTs8E-10" value="- service_id: Int&lt;div&gt;- company_id: Int&lt;/div&gt;&lt;div&gt;- service_price: Float&lt;/div&gt;&lt;div&gt;- user_id: Int&lt;/div&gt;&lt;div&gt;- service_name: String&lt;/div&gt;" style="text;strokeColor=light-dark(#000000,#000000);fillColor=light-dark(#FFFFFF,#FFFFFF);align=left;verticalAlign=middle;spacingLeft=4;spacingRight=4;overflow=hidden;points=[[0,0.5],[1,0.5]];portConstraint=eastwest;rotatable=0;whiteSpace=wrap;html=1;fontColor=light-dark(#000000,#000000);" parent="_ydNGUtrwnxu__iHTs8E-9" vertex="1">
          <mxGeometry y="30" width="230" height="80" as="geometry" />
        </mxCell>
        <mxCell id="_ydNGUtrwnxu__iHTs8E-11" value="+ getprice()&lt;div&gt;+ setprice(Float service_price)&lt;/div&gt;&lt;div&gt;+ get service_name()&lt;/div&gt;&lt;div&gt;+ setservice_name(String service_name)&lt;/div&gt;&lt;div&gt;+ getservice_id()&lt;/div&gt;&lt;div&gt;+ setservice_id(Int service_id)&lt;/div&gt;&lt;div&gt;+ getcompany_id()&lt;/div&gt;&lt;div&gt;+ setcompany_id(Int company_id)&lt;/div&gt;&lt;div&gt;+ getuser_id()&lt;/div&gt;&lt;div&gt;+ setuser_id(Int user_id)&lt;/div&gt;&lt;div&gt;&lt;br&gt;&lt;/div&gt;" style="text;strokeColor=light-dark(#000000,#000000);fillColor=light-dark(#FFFFFF,#FFFFFF);align=left;verticalAlign=middle;spacingLeft=4;spacingRight=4;overflow=hidden;points=[[0,0.5],[1,0.5]];portConstraint=eastwest;rotatable=0;whiteSpace=wrap;html=1;fontColor=light-dark(#000000,#000000);" parent="_ydNGUtrwnxu__iHTs8E-9" vertex="1">
          <mxGeometry y="110" width="230" height="170" as="geometry" />
        </mxCell>
        <mxCell id="rbe2yqdiVSbnE7vsVnZQ-1" value="My Codes&lt;span style=&quot;color: rgba(0, 0, 0, 0); font-family: monospace; font-size: 0px; text-align: start; text-wrap-mode: nowrap;&quot;&gt;%3CmxGraphModel%3E%3Croot%3E%3CmxCell%20id%3D%220%22%2F%3E%3CmxCell%20id%3D%221%22%20parent%3D%220%22%2F%3E%3CmxCell%20id%3D%222%22%20value%3D%22List%22%20style%3D%22swimlane%3BfontStyle%3D0%3BchildLayout%3DstackLayout%3Bhorizontal%3D1%3BstartSize%3D30%3BhorizontalStack%3D0%3BresizeParent%3D1%3BresizeParentMax%3D0%3BresizeLast%3D0%3Bcollapsible%3D1%3BmarginBottom%3D0%3BwhiteSpace%3Dwrap%3Bhtml%3D1%3BstrokeColor%3Dlight-dark(%23000000%2C%23000000)%3BfillColor%3Dlight-dark(%23FFFFFF%2C%23FFFFFF)%3BfontColor%3Dlight-dark(%23000000%2C%23000000)%3B%22%20vertex%3D%221%22%20parent%3D%221%22%3E%3CmxGeometry%20x%3D%22190%22%20y%3D%22260%22%20width%3D%22140%22%20height%3D%2290%22%20as%3D%22geometry%22%2F%3E%3C%2FmxCell%3E%3CmxCell%20id%3D%223%22%20value%3D%22Item%202%22%20style%3D%22text%3BstrokeColor%3Dlight-dark(%23000000%2C%23000000)%3BfillColor%3Dlight-dark(%23FFFFFF%2C%23FFFFFF)%3Balign%3Dleft%3BverticalAlign%3Dmiddle%3BspacingLeft%3D4%3BspacingRight%3D4%3Boverflow%3Dhidden%3Bpoints%3D%5B%5B0%2C0.5%5D%2C%5B1%2C0.5%5D%5D%3BportConstraint%3Deastwest%3Brotatable%3D0%3BwhiteSpace%3Dwrap%3Bhtml%3D1%3BfontColor%3Dlight-dark(%23000000%2C%23000000)%3B%22%20vertex%3D%221%22%20parent%3D%222%22%3E%3CmxGeometry%20y%3D%2230%22%20width%3D%22140%22%20height%3D%2230%22%20as%3D%22geometry%22%2F%3E%3C%2FmxCell%3E%3CmxCell%20id%3D%224%22%20value%3D%22Item%202%22%20style%3D%22text%3BstrokeColor%3Dlight-dark(%23000000%2C%23000000)%3BfillColor%3Dlight-dark(%23FFFFFF%2C%23FFFFFF)%3Balign%3Dleft%3BverticalAlign%3Dmiddle%3BspacingLeft%3D4%3BspacingRight%3D4%3Boverflow%3Dhidden%3Bpoints%3D%5B%5B0%2C0.5%5D%2C%5B1%2C0.5%5D%5D%3BportConstraint%3Deastwest%3Brotatable%3D0%3BwhiteSpace%3Dwrap%3Bhtml%3D1%3BfontColor%3Dlight-dark(%23000000%2C%23000000)%3B%22%20vertex%3D%221%22%20parent%3D%222%22%3E%3CmxGeometry%20y%3D%2260%22%20width%3D%22140%22%20height%3D%2230%22%20as%3D%22geometry%22%2F%3E%3C%2FmxCell%3E%3C%2Froot%3E%3C%2FmxGraphModel%3E&lt;/span&gt;" style="swimlane;fontStyle=0;childLayout=stackLayout;horizontal=1;startSize=30;horizontalStack=0;resizeParent=1;resizeParentMax=0;resizeLast=0;collapsible=1;marginBottom=0;whiteSpace=wrap;html=1;strokeColor=light-dark(#000000,#000000);fillColor=light-dark(#FFFFFF,#FFFFFF);fontColor=light-dark(#000000,#000000);" parent="1" vertex="1">
          <mxGeometry x="20" y="40" width="230" height="180" as="geometry" />
        </mxCell>
        <mxCell id="rbe2yqdiVSbnE7vsVnZQ-2" value="- card_number: String&lt;div&gt;- company_id: Int&lt;/div&gt;&lt;div&gt;- user_id: Int&lt;/div&gt;" style="text;strokeColor=light-dark(#000000,#000000);fillColor=light-dark(#FFFFFF,#FFFFFF);align=left;verticalAlign=middle;spacingLeft=4;spacingRight=4;overflow=hidden;points=[[0,0.5],[1,0.5]];portConstraint=eastwest;rotatable=0;whiteSpace=wrap;html=1;fontColor=light-dark(#000000,#000000);" parent="rbe2yqdiVSbnE7vsVnZQ-1" vertex="1">
          <mxGeometry y="30" width="230" height="60" as="geometry" />
        </mxCell>
        <mxCell id="rbe2yqdiVSbnE7vsVnZQ-3" value="+ getcard_number()&lt;div&gt;+ setcard_number(String card_namber)&lt;/div&gt;&lt;div&gt;+ getcompany_id()&lt;/div&gt;&lt;div&gt;+ setcompany_id(Int company_id)&lt;/div&gt;&lt;div&gt;+ getuser_id()&lt;/div&gt;&lt;div&gt;+ setuser_id(Int user_id)&lt;/div&gt;" style="text;strokeColor=light-dark(#000000,#000000);fillColor=light-dark(#FFFFFF,#FFFFFF);align=left;verticalAlign=middle;spacingLeft=4;spacingRight=4;overflow=hidden;points=[[0,0.5],[1,0.5]];portConstraint=eastwest;rotatable=0;whiteSpace=wrap;html=1;fontColor=light-dark(#000000,#000000);" parent="rbe2yqdiVSbnE7vsVnZQ-1" vertex="1">
          <mxGeometry y="90" width="230" height="90" as="geometry" />
        </mxCell>
        <mxCell id="rbe2yqdiVSbnE7vsVnZQ-4" value="Favourites" style="swimlane;fontStyle=0;childLayout=stackLayout;horizontal=1;startSize=30;horizontalStack=0;resizeParent=1;resizeParentMax=0;resizeLast=0;collapsible=1;marginBottom=0;whiteSpace=wrap;html=1;strokeColor=light-dark(#000000,#000000);fillColor=light-dark(#FFFFFF,#FFFFFF);fontColor=light-dark(#000000,#000000);" parent="1" vertex="1">
          <mxGeometry x="10" y="280" width="250" height="380" as="geometry" />
        </mxCell>
        <mxCell id="rbe2yqdiVSbnE7vsVnZQ-5" value="- service_name: String&lt;div&gt;- service_price: Float&lt;/div&gt;&lt;div&gt;- service_category: String&lt;/div&gt;&lt;div&gt;- service_id: Int&lt;/div&gt;&lt;div&gt;- company_id: Int&lt;/div&gt;&lt;div&gt;- user_id: Int&lt;/div&gt;&lt;div&gt;- company_name: String&lt;/div&gt;" style="text;strokeColor=light-dark(#000000,#000000);fillColor=light-dark(#FFFFFF,#FFFFFF);align=left;verticalAlign=middle;spacingLeft=4;spacingRight=4;overflow=hidden;points=[[0,0.5],[1,0.5]];portConstraint=eastwest;rotatable=0;whiteSpace=wrap;html=1;fontColor=light-dark(#000000,#000000);" parent="rbe2yqdiVSbnE7vsVnZQ-4" vertex="1">
          <mxGeometry y="30" width="250" height="110" as="geometry" />
        </mxCell>
        <mxCell id="rbe2yqdiVSbnE7vsVnZQ-6" value="+ getservice_name()&lt;div&gt;+ setservice_name(String service_name)&lt;/div&gt;&lt;div&gt;+ getservice_price()&lt;/div&gt;&lt;div&gt;+ setservice_price(Float service_price)&lt;/div&gt;&lt;div&gt;+ getservice_category()&lt;/div&gt;&lt;div&gt;+ setservice_category(String service_category)&lt;/div&gt;&lt;div&gt;+ getservice_id()&lt;/div&gt;&lt;div&gt;+ setservice_id(Int service_id)&lt;/div&gt;&lt;div&gt;+ getcompany_id()&lt;/div&gt;&lt;div&gt;+ setcompany_id(Int company_id)&lt;/div&gt;&lt;div&gt;+ getuser_id()&lt;/div&gt;&lt;div&gt;+ setuser_id(Int user_id)&lt;/div&gt;&lt;div&gt;+ getcompany_name()&lt;/div&gt;&lt;div&gt;+ setcompany_name(String company_name)&lt;/div&gt;" style="text;strokeColor=light-dark(#000000,#000000);fillColor=light-dark(#FFFFFF,#FFFFFF);align=left;verticalAlign=middle;spacingLeft=4;spacingRight=4;overflow=hidden;points=[[0,0.5],[1,0.5]];portConstraint=eastwest;rotatable=0;whiteSpace=wrap;html=1;fontColor=light-dark(#000000,#000000);" parent="rbe2yqdiVSbnE7vsVnZQ-4" vertex="1">
          <mxGeometry y="140" width="250" height="240" as="geometry" />
        </mxCell>
        <mxCell id="rbe2yqdiVSbnE7vsVnZQ-7" value="My Gyms" style="swimlane;fontStyle=0;childLayout=stackLayout;horizontal=1;startSize=30;horizontalStack=0;resizeParent=1;resizeParentMax=0;resizeLast=0;collapsible=1;marginBottom=0;whiteSpace=wrap;html=1;strokeColor=light-dark(#000000,#000000);fillColor=light-dark(#FFFFFF,#FFFFFF);fontColor=light-dark(#000000,#000000);" parent="1" vertex="1">
          <mxGeometry x="10" y="720" width="250" height="230" as="geometry" />
        </mxCell>
        <mxCell id="rbe2yqdiVSbnE7vsVnZQ-8" value="- company_id: Int&lt;div&gt;- user_id: Int&lt;/div&gt;&lt;div&gt;- service_id: Int&lt;/div&gt;&lt;div&gt;- company_name: String&lt;/div&gt;" style="text;strokeColor=light-dark(#000000,#000000);fillColor=light-dark(#FFFFFF,#FFFFFF);align=left;verticalAlign=middle;spacingLeft=4;spacingRight=4;overflow=hidden;points=[[0,0.5],[1,0.5]];portConstraint=eastwest;rotatable=0;whiteSpace=wrap;html=1;fontColor=light-dark(#000000,#000000);" parent="rbe2yqdiVSbnE7vsVnZQ-7" vertex="1">
          <mxGeometry y="30" width="250" height="70" as="geometry" />
        </mxCell>
        <mxCell id="rbe2yqdiVSbnE7vsVnZQ-9" value="+ getcompany_id()&lt;div&gt;+ setcompany_id(Int company_id)&lt;/div&gt;&lt;div&gt;+ getcompany_name()&lt;/div&gt;&lt;div&gt;+ setcompany_name(String company_name)&lt;/div&gt;&lt;div&gt;+ getuser_id()&lt;/div&gt;&lt;div&gt;+ setuser_id(Int user_id)&lt;/div&gt;&lt;div&gt;+ getservice_id()&lt;/div&gt;&lt;div&gt;+ setservice_id(Int service_id)&lt;/div&gt;" style="text;strokeColor=light-dark(#000000,#000000);fillColor=light-dark(#FFFFFF,#FFFFFF);align=left;verticalAlign=middle;spacingLeft=4;spacingRight=4;overflow=hidden;points=[[0,0.5],[1,0.5]];portConstraint=eastwest;rotatable=0;whiteSpace=wrap;html=1;fontColor=light-dark(#000000,#000000);" parent="rbe2yqdiVSbnE7vsVnZQ-7" vertex="1">
          <mxGeometry y="100" width="250" height="130" as="geometry" />
        </mxCell>
        <mxCell id="rbe2yqdiVSbnE7vsVnZQ-10" value="Find Gyms" style="swimlane;fontStyle=0;childLayout=stackLayout;horizontal=1;startSize=30;horizontalStack=0;resizeParent=1;resizeParentMax=0;resizeLast=0;collapsible=1;marginBottom=0;whiteSpace=wrap;html=1;strokeColor=light-dark(#000000,#000000);fillColor=light-dark(#FFFFFF,#FFFFFF);fontColor=light-dark(#000000,#000000);" parent="1" vertex="1">
          <mxGeometry x="840" y="440" width="410" height="350" as="geometry" />
        </mxCell>
        <mxCell id="rbe2yqdiVSbnE7vsVnZQ-11" value="" style="text;strokeColor=light-dark(#000000,#000000);fillColor=light-dark(#FFFFFF,#FFFFFF);align=left;verticalAlign=middle;spacingLeft=4;spacingRight=4;overflow=hidden;points=[[0,0.5],[1,0.5]];portConstraint=eastwest;rotatable=0;whiteSpace=wrap;html=1;fontColor=light-dark(#000000,#000000);" parent="rbe2yqdiVSbnE7vsVnZQ-10" vertex="1">
          <mxGeometry y="30" width="410" height="30" as="geometry" />
        </mxCell>
        <mxCell id="rbe2yqdiVSbnE7vsVnZQ-12" value="+ findGym()&lt;div&gt;+ addcompany(Company_User comapny)&lt;/div&gt;&lt;div&gt;+ addservice(Services service)&lt;/div&gt;&lt;div&gt;+ adduser(User user)&lt;/div&gt;&lt;div&gt;+ showCategories()&lt;/div&gt;&lt;div&gt;+ showCategoryServices(String category)&lt;/div&gt;&lt;div&gt;+ search()&lt;/div&gt;&lt;div&gt;+ showServiceInfo(String serviceName)&lt;/div&gt;&lt;div&gt;+ showcuserInfo(String companyName)&lt;/div&gt;&lt;div&gt;+ showuserProfile(Int userid&lt;span style=&quot;background-color: transparent;&quot;&gt;)&lt;/span&gt;&lt;/div&gt;&lt;div&gt;&lt;span style=&quot;background-color: transparent;&quot;&gt;+ showCompanyServices(String companyName)&lt;/span&gt;&lt;/div&gt;&lt;div&gt;&lt;span style=&quot;background-color: transparent;&quot;&gt;+ addToFavourites(String serviceName, Int userid, Int company_id)&lt;/span&gt;&lt;/div&gt;&lt;div&gt;+ showUserFavourites(Int userid)&lt;/div&gt;&lt;div&gt;+ addToCart(String serviceName, Int userid, Int company_id)&lt;/div&gt;&lt;div&gt;+ showCart(Int userid)&lt;/div&gt;&lt;div&gt;+ completeOrder(Int userid)&lt;/div&gt;&lt;div&gt;+ cardCreation(Int userid, Int companyid)&lt;/div&gt;&lt;div&gt;+ AddGymToMyGyms(Int companyid, String companyName, Int service_id)&lt;/div&gt;" style="text;strokeColor=light-dark(#000000,#000000);fillColor=light-dark(#FFFFFF,#FFFFFF);align=left;verticalAlign=middle;spacingLeft=4;spacingRight=4;overflow=hidden;points=[[0,0.5],[1,0.5]];portConstraint=eastwest;rotatable=0;whiteSpace=wrap;html=1;fontColor=light-dark(#000000,#000000);" parent="rbe2yqdiVSbnE7vsVnZQ-10" vertex="1">
          <mxGeometry y="60" width="410" height="290" as="geometry" />
        </mxCell>
        <mxCell id="rbe2yqdiVSbnE7vsVnZQ-16" value="Company User" style="swimlane;fontStyle=0;childLayout=stackLayout;horizontal=1;startSize=30;horizontalStack=0;resizeParent=1;resizeParentMax=0;resizeLast=0;collapsible=1;marginBottom=0;whiteSpace=wrap;html=1;strokeColor=light-dark(#000000,#000000);fillColor=light-dark(#FFFFFF,#FFFFFF);fontColor=light-dark(#000000,#000000);" parent="1" vertex="1">
          <mxGeometry x="1350" y="450" width="250" height="410" as="geometry" />
        </mxCell>
        <mxCell id="rbe2yqdiVSbnE7vsVnZQ-17" value="- company_id: Int&lt;div&gt;- company_name: String&lt;/div&gt;&lt;div&gt;- postal_code: Int&lt;/div&gt;&lt;div&gt;- email: String&lt;/div&gt;&lt;div&gt;- address: String&lt;/div&gt;&lt;div&gt;- phone_no: String&lt;/div&gt;&lt;div&gt;- tax_id: Long&lt;/div&gt;&lt;div&gt;- password: String&lt;/div&gt;" style="text;strokeColor=light-dark(#000000,#000000);fillColor=light-dark(#FFFFFF,#FFFFFF);align=left;verticalAlign=middle;spacingLeft=4;spacingRight=4;overflow=hidden;points=[[0,0.5],[1,0.5]];portConstraint=eastwest;rotatable=0;whiteSpace=wrap;html=1;fontColor=light-dark(#000000,#000000);" parent="rbe2yqdiVSbnE7vsVnZQ-16" vertex="1">
          <mxGeometry y="30" width="250" height="130" as="geometry" />
        </mxCell>
        <mxCell id="rbe2yqdiVSbnE7vsVnZQ-18" value="&lt;div&gt;&lt;span style=&quot;background-color: transparent;&quot;&gt;+ getcompany_id()&lt;/span&gt;&lt;/div&gt;&lt;div&gt;+ setcompany_id(Int company_id)&lt;/div&gt;&lt;div&gt;+ getcompany_name()&lt;/div&gt;&lt;div&gt;+ setcompany_name(String company_name)&lt;/div&gt;&lt;div&gt;&lt;div&gt;&lt;span style=&quot;background-color: transparent;&quot;&gt;+ getpostal_code()&lt;/span&gt;&lt;/div&gt;&lt;div&gt;+ setpostal_code(Int postal_code)&lt;/div&gt;&lt;div&gt;+ getemail()&lt;/div&gt;&lt;div&gt;+ setemail(String email)&lt;/div&gt;&lt;/div&gt;&lt;div&gt;&lt;div&gt;&lt;span style=&quot;background-color: transparent;&quot;&gt;+ getaddress()&lt;/span&gt;&lt;/div&gt;&lt;div&gt;+ setaddress(String address)&lt;/div&gt;&lt;div&gt;+ getphone_no()&lt;/div&gt;&lt;div&gt;+ setphone_no(String phone_no)&lt;/div&gt;&lt;/div&gt;&lt;div&gt;&lt;div&gt;&lt;span style=&quot;background-color: transparent;&quot;&gt;+ gettax_id()&lt;/span&gt;&lt;/div&gt;&lt;div&gt;+ settax_id(Long tax_id)&lt;/div&gt;&lt;div&gt;+ getpassword()&lt;/div&gt;&lt;div&gt;+ setpassword(String password)&lt;/div&gt;&lt;/div&gt;" style="text;strokeColor=light-dark(#000000,#000000);fillColor=light-dark(#FFFFFF,#FFFFFF);align=left;verticalAlign=middle;spacingLeft=4;spacingRight=4;overflow=hidden;points=[[0,0.5],[1,0.5]];portConstraint=eastwest;rotatable=0;whiteSpace=wrap;html=1;fontColor=light-dark(#000000,#000000);" parent="rbe2yqdiVSbnE7vsVnZQ-16" vertex="1">
          <mxGeometry y="160" width="250" height="250" as="geometry" />
        </mxCell>
        <mxCell id="rbe2yqdiVSbnE7vsVnZQ-19" value="Subscription History" style="swimlane;fontStyle=0;childLayout=stackLayout;horizontal=1;startSize=30;horizontalStack=0;resizeParent=1;resizeParentMax=0;resizeLast=0;collapsible=1;marginBottom=0;whiteSpace=wrap;html=1;strokeColor=light-dark(#000000,#000000);fillColor=light-dark(#FFFFFF,#FFFFFF);fontColor=light-dark(#000000,#000000);" parent="1" vertex="1">
          <mxGeometry x="965" y="1250" width="160" height="90" as="geometry" />
        </mxCell>
        <mxCell id="rbe2yqdiVSbnE7vsVnZQ-20" value="" style="text;strokeColor=light-dark(#000000,#000000);fillColor=light-dark(#FFFFFF,#FFFFFF);align=left;verticalAlign=middle;spacingLeft=4;spacingRight=4;overflow=hidden;points=[[0,0.5],[1,0.5]];portConstraint=eastwest;rotatable=0;whiteSpace=wrap;html=1;fontColor=light-dark(#000000,#000000);" parent="rbe2yqdiVSbnE7vsVnZQ-19" vertex="1">
          <mxGeometry y="30" width="160" height="30" as="geometry" />
        </mxCell>
        <mxCell id="rbe2yqdiVSbnE7vsVnZQ-21" value="+ getsubscription_history()" style="text;strokeColor=light-dark(#000000,#000000);fillColor=light-dark(#FFFFFF,#FFFFFF);align=left;verticalAlign=middle;spacingLeft=4;spacingRight=4;overflow=hidden;points=[[0,0.5],[1,0.5]];portConstraint=eastwest;rotatable=0;whiteSpace=wrap;html=1;fontColor=light-dark(#000000,#000000);" parent="rbe2yqdiVSbnE7vsVnZQ-19" vertex="1">
          <mxGeometry y="60" width="160" height="30" as="geometry" />
        </mxCell>
        <mxCell id="rbe2yqdiVSbnE7vsVnZQ-22" value="Services" style="swimlane;fontStyle=0;childLayout=stackLayout;horizontal=1;startSize=30;horizontalStack=0;resizeParent=1;resizeParentMax=0;resizeLast=0;collapsible=1;marginBottom=0;whiteSpace=wrap;html=1;strokeColor=light-dark(#000000,#000000);fillColor=light-dark(#FFFFFF,#FFFFFF);fontColor=light-dark(#000000,#000000);" parent="1" vertex="1">
          <mxGeometry x="1340" y="1060" width="270" height="330" as="geometry" />
        </mxCell>
        <mxCell id="rbe2yqdiVSbnE7vsVnZQ-23" value="- company_id: Int&lt;div&gt;- service_id: Int&lt;/div&gt;&lt;div&gt;- service_name: String&lt;/div&gt;&lt;div&gt;- service_price: Float&lt;/div&gt;&lt;div&gt;- service_category: String&lt;/div&gt;&lt;div&gt;- company_name: String&lt;/div&gt;" style="text;strokeColor=light-dark(#000000,#000000);fillColor=light-dark(#FFFFFF,#FFFFFF);align=left;verticalAlign=middle;spacingLeft=4;spacingRight=4;overflow=hidden;points=[[0,0.5],[1,0.5]];portConstraint=eastwest;rotatable=0;whiteSpace=wrap;html=1;fontColor=light-dark(#000000,#000000);" parent="rbe2yqdiVSbnE7vsVnZQ-22" vertex="1">
          <mxGeometry y="30" width="270" height="100" as="geometry" />
        </mxCell>
        <mxCell id="rbe2yqdiVSbnE7vsVnZQ-24" value="&lt;div&gt;+ getcompany_id()&lt;/div&gt;&lt;div&gt;+ setcompany_id(Int company_id)&lt;/div&gt;&lt;div&gt;+ getservice_name()&lt;div&gt;+ setservice_name(String service_name)&lt;/div&gt;&lt;div&gt;+ getservice_price()&lt;/div&gt;&lt;div&gt;+ setservice_price(Float service_price)&lt;/div&gt;&lt;div&gt;+ getservice_category()&lt;/div&gt;&lt;div&gt;+ setservice_category(String service_category)&lt;/div&gt;&lt;div&gt;+ getservice_id()&lt;/div&gt;&lt;div&gt;+ setservice_id(Int service_id)&lt;/div&gt;&lt;div&gt;&lt;span style=&quot;background-color: transparent;&quot;&gt;+ getcompany_name()&lt;/span&gt;&lt;/div&gt;&lt;div&gt;+ setcompany_name(String company_name)&lt;/div&gt;&lt;/div&gt;" style="text;strokeColor=light-dark(#000000,#000000);fillColor=light-dark(#FFFFFF,#FFFFFF);align=left;verticalAlign=middle;spacingLeft=4;spacingRight=4;overflow=hidden;points=[[0,0.5],[1,0.5]];portConstraint=eastwest;rotatable=0;whiteSpace=wrap;html=1;fontColor=light-dark(#000000,#000000);" parent="rbe2yqdiVSbnE7vsVnZQ-22" vertex="1">
          <mxGeometry y="130" width="270" height="200" as="geometry" />
        </mxCell>
        <mxCell id="rbe2yqdiVSbnE7vsVnZQ-32" value="" style="endArrow=classic;html=1;rounded=0;strokeColor=light-dark(#000000,#000000);entryX=0;entryY=0.5;entryDx=0;entryDy=0;exitX=1;exitY=0.5;exitDx=0;exitDy=0;" parent="1" source="_ydNGUtrwnxu__iHTs8E-2" target="rbe2yqdiVSbnE7vsVnZQ-12" edge="1">
          <mxGeometry width="50" height="50" relative="1" as="geometry">
            <mxPoint x="420" y="356" as="sourcePoint" />
            <mxPoint x="580" y="463" as="targetPoint" />
            <Array as="points" />
          </mxGeometry>
        </mxCell>
        <mxCell id="rbe2yqdiVSbnE7vsVnZQ-33" value="" style="endArrow=classic;html=1;rounded=0;strokeColor=light-dark(#000000,#000000);entryX=1;entryY=0.75;entryDx=0;entryDy=0;exitX=0;exitY=0.25;exitDx=0;exitDy=0;" parent="1" target="rbe2yqdiVSbnE7vsVnZQ-4" edge="1" source="_ydNGUtrwnxu__iHTs8E-2">
          <mxGeometry width="50" height="50" relative="1" as="geometry">
            <mxPoint x="230" y="466" as="sourcePoint" />
            <mxPoint x="240" y="558" as="targetPoint" />
            <Array as="points" />
          </mxGeometry>
        </mxCell>
        <mxCell id="rbe2yqdiVSbnE7vsVnZQ-34" value="" style="endArrow=classic;html=1;rounded=0;strokeColor=light-dark(#000000,#000000);exitX=0;exitY=0;exitDx=0;exitDy=0;entryX=1;entryY=0.75;entryDx=0;entryDy=0;" parent="1" source="_ydNGUtrwnxu__iHTs8E-2" target="rbe2yqdiVSbnE7vsVnZQ-1" edge="1">
          <mxGeometry width="50" height="50" relative="1" as="geometry">
            <mxPoint x="210" y="358" as="sourcePoint" />
            <mxPoint x="310" y="286" as="targetPoint" />
            <Array as="points">
              <mxPoint x="360" y="175" />
            </Array>
          </mxGeometry>
        </mxCell>
        <mxCell id="fd8RUs7CUl5_DiuP1nIO-7" value="Order" style="swimlane;fontStyle=0;childLayout=stackLayout;horizontal=1;startSize=30;horizontalStack=0;resizeParent=1;resizeParentMax=0;resizeLast=0;collapsible=1;marginBottom=0;whiteSpace=wrap;html=1;strokeColor=light-dark(#000000,#000000);fillColor=light-dark(#FFFFFF,#FFFFFF);fontColor=light-dark(#000000,#000000);" vertex="1" parent="1">
          <mxGeometry x="390" y="970" width="230" height="370" as="geometry" />
        </mxCell>
        <mxCell id="fd8RUs7CUl5_DiuP1nIO-8" value="- company_id: Int&lt;div&gt;- service_id: Int&lt;/div&gt;&lt;div&gt;- service_name: String&lt;/div&gt;&lt;div&gt;- service_price: Float&lt;/div&gt;&lt;div&gt;- service_category: String&lt;/div&gt;&lt;div&gt;- order_id: Int&lt;/div&gt;&lt;div&gt;- user_id: Int&lt;/div&gt;" style="text;strokeColor=light-dark(#000000,#000000);fillColor=light-dark(#FFFFFF,#FFFFFF);align=left;verticalAlign=middle;spacingLeft=4;spacingRight=4;overflow=hidden;points=[[0,0.5],[1,0.5]];portConstraint=eastwest;rotatable=0;whiteSpace=wrap;html=1;fontColor=light-dark(#000000,#000000);" vertex="1" parent="fd8RUs7CUl5_DiuP1nIO-7">
          <mxGeometry y="30" width="230" height="110" as="geometry" />
        </mxCell>
        <mxCell id="fd8RUs7CUl5_DiuP1nIO-9" value="+ getcompany_id()&lt;div&gt;+ setcompany_id(Int company_id)&lt;/div&gt;&lt;div&gt;+ getservice_id()&lt;/div&gt;&lt;div&gt;+ setservice_id(Int service_id)&lt;/div&gt;&lt;div&gt;+ getservice_name()&lt;/div&gt;&lt;div&gt;+ setservice_name(String service_name)&lt;/div&gt;&lt;div&gt;+ getservice_price()&lt;/div&gt;&lt;div&gt;+ setservice_price(Float service_price)&lt;/div&gt;&lt;div&gt;+ getservice_category()&lt;/div&gt;&lt;div&gt;+ setservice_category(String service_category)&lt;br&gt;+ getorder_id()&lt;/div&gt;&lt;div&gt;+ setorder_id(Int order_id)&lt;/div&gt;&lt;div&gt;+ getuser_id()&lt;/div&gt;&lt;div&gt;+ setuser_id(Int user_id)&lt;/div&gt;" style="text;strokeColor=light-dark(#000000,#000000);fillColor=light-dark(#FFFFFF,#FFFFFF);align=left;verticalAlign=middle;spacingLeft=4;spacingRight=4;overflow=hidden;points=[[0,0.5],[1,0.5]];portConstraint=eastwest;rotatable=0;whiteSpace=wrap;html=1;fontColor=light-dark(#000000,#000000);" vertex="1" parent="fd8RUs7CUl5_DiuP1nIO-7">
          <mxGeometry y="140" width="230" height="230" as="geometry" />
        </mxCell>
        <mxCell id="fd8RUs7CUl5_DiuP1nIO-10" value="Main" style="swimlane;fontStyle=0;childLayout=stackLayout;horizontal=1;startSize=30;horizontalStack=0;resizeParent=1;resizeParentMax=0;resizeLast=0;collapsible=1;marginBottom=0;whiteSpace=wrap;html=1;strokeColor=light-dark(#000000,#000000);fillColor=light-dark(#FFFFFF,#FFFFFF);fontColor=light-dark(#000000,#000000);" vertex="1" parent="1">
          <mxGeometry x="570" y="125" width="150" height="150" as="geometry" />
        </mxCell>
        <mxCell id="fd8RUs7CUl5_DiuP1nIO-11" value="- serv: Services&lt;div&gt;- cart: Cart&lt;/div&gt;&lt;div&gt;- user: User&lt;/div&gt;&lt;div&gt;- c_user: Company_User&lt;/div&gt;&lt;div&gt;- fgym: Find_Gyms&lt;/div&gt;&lt;div&gt;- menu: Menu&lt;/div&gt;" style="text;strokeColor=light-dark(#000000,#000000);fillColor=light-dark(#FFFFFF,#FFFFFF);align=left;verticalAlign=middle;spacingLeft=4;spacingRight=4;overflow=hidden;points=[[0,0.5],[1,0.5]];portConstraint=eastwest;rotatable=0;whiteSpace=wrap;html=1;fontColor=light-dark(#000000,#000000);" vertex="1" parent="fd8RUs7CUl5_DiuP1nIO-10">
          <mxGeometry y="30" width="150" height="90" as="geometry" />
        </mxCell>
        <mxCell id="fd8RUs7CUl5_DiuP1nIO-12" value="" style="text;strokeColor=light-dark(#000000,#000000);fillColor=light-dark(#FFFFFF,#FFFFFF);align=left;verticalAlign=middle;spacingLeft=4;spacingRight=4;overflow=hidden;points=[[0,0.5],[1,0.5]];portConstraint=eastwest;rotatable=0;whiteSpace=wrap;html=1;fontColor=light-dark(#000000,#000000);" vertex="1" parent="fd8RUs7CUl5_DiuP1nIO-10">
          <mxGeometry y="120" width="150" height="30" as="geometry" />
        </mxCell>
        <mxCell id="fd8RUs7CUl5_DiuP1nIO-13" value="Menu" style="swimlane;fontStyle=0;childLayout=stackLayout;horizontal=1;startSize=30;horizontalStack=0;resizeParent=1;resizeParentMax=0;resizeLast=0;collapsible=1;marginBottom=0;whiteSpace=wrap;html=1;strokeColor=light-dark(#000000,#000000);fillColor=light-dark(#FFFFFF,#FFFFFF);fontColor=light-dark(#000000,#000000);" vertex="1" parent="1">
          <mxGeometry x="900" y="20" width="280" height="360" as="geometry" />
        </mxCell>
        <mxCell id="fd8RUs7CUl5_DiuP1nIO-14" value="" style="text;strokeColor=light-dark(#000000,#000000);fillColor=light-dark(#FFFFFF,#FFFFFF);align=left;verticalAlign=middle;spacingLeft=4;spacingRight=4;overflow=hidden;points=[[0,0.5],[1,0.5]];portConstraint=eastwest;rotatable=0;whiteSpace=wrap;html=1;fontColor=light-dark(#000000,#000000);" vertex="1" parent="fd8RUs7CUl5_DiuP1nIO-13">
          <mxGeometry y="30" width="280" height="30" as="geometry" />
        </mxCell>
        <mxCell id="fd8RUs7CUl5_DiuP1nIO-15" value="+ getcompany_id()&lt;div&gt;+ setcompany_id(Int company_id)&lt;/div&gt;&lt;div&gt;+ getuser_id()&lt;/div&gt;&lt;div&gt;+ setuser_id(Int user_id)&lt;/div&gt;&lt;div&gt;+ getservice_id()&lt;/div&gt;&lt;div&gt;+ setservice_id(Int service_id)&lt;/div&gt;&lt;div&gt;+ getuser_info(String username, String password)&lt;/div&gt;&lt;div&gt;+ newCompany_User_info()&lt;/div&gt;&lt;div&gt;+ newuser_info()&lt;/div&gt;&lt;div&gt;+ menu(Find_Gyms find_gym)&lt;/div&gt;&lt;div&gt;+ newservices()&lt;/div&gt;&lt;div&gt;+ showmenu()&lt;/div&gt;&lt;div&gt;+ signin()&lt;/div&gt;&lt;div&gt;+ personalhomescreen()&lt;/div&gt;&lt;div&gt;+ companyhomescreen()&lt;/div&gt;&lt;div&gt;+ signup(&lt;span style=&quot;background-color: transparent;&quot;&gt;)&lt;/span&gt;&lt;/div&gt;&lt;div&gt;&lt;span style=&quot;background-color: transparent;&quot;&gt;+ showAnnouncements(Int user_id)&lt;/span&gt;&lt;/div&gt;&lt;div&gt;&lt;span style=&quot;background-color: transparent;&quot;&gt;+ MyCodes(Int user_id, Int company_id)&lt;/span&gt;&lt;/div&gt;&lt;div&gt;&lt;span style=&quot;background-color: transparent;&quot;&gt;+ MyGyms(Int user_id)&lt;/span&gt;&lt;/div&gt;" style="text;strokeColor=light-dark(#000000,#000000);fillColor=light-dark(#FFFFFF,#FFFFFF);align=left;verticalAlign=middle;spacingLeft=4;spacingRight=4;overflow=hidden;points=[[0,0.5],[1,0.5]];portConstraint=eastwest;rotatable=0;whiteSpace=wrap;html=1;fontColor=light-dark(#000000,#000000);" vertex="1" parent="fd8RUs7CUl5_DiuP1nIO-13">
          <mxGeometry y="60" width="280" height="300" as="geometry" />
        </mxCell>
        <mxCell id="fd8RUs7CUl5_DiuP1nIO-16" value="" style="endArrow=classic;html=1;rounded=0;strokeColor=light-dark(#000000,#000000);entryX=1;entryY=0.25;entryDx=0;entryDy=0;exitX=0.25;exitY=1;exitDx=0;exitDy=0;" edge="1" parent="1" source="_ydNGUtrwnxu__iHTs8E-2" target="_ydNGUtrwnxu__iHTs8E-9">
          <mxGeometry width="50" height="50" relative="1" as="geometry">
            <mxPoint x="320" y="516" as="sourcePoint" />
            <mxPoint x="170" y="601" as="targetPoint" />
          </mxGeometry>
        </mxCell>
        <mxCell id="fd8RUs7CUl5_DiuP1nIO-18" value="" style="endArrow=classic;html=1;rounded=0;strokeColor=light-dark(#000000,#000000);exitX=1;exitY=1;exitDx=0;exitDy=0;entryX=0;entryY=0.5;entryDx=0;entryDy=0;" edge="1" parent="1" source="_ydNGUtrwnxu__iHTs8E-2" target="rbe2yqdiVSbnE7vsVnZQ-13">
          <mxGeometry width="50" height="50" relative="1" as="geometry">
            <mxPoint x="520" y="606" as="sourcePoint" />
            <mxPoint x="450" y="681" as="targetPoint" />
          </mxGeometry>
        </mxCell>
        <mxCell id="fd8RUs7CUl5_DiuP1nIO-20" value="" style="endArrow=classic;html=1;rounded=0;strokeColor=light-dark(#000000,#000000);exitX=0.75;exitY=1;exitDx=0;exitDy=0;entryX=0;entryY=0.25;entryDx=0;entryDy=0;" edge="1" parent="1" source="_ydNGUtrwnxu__iHTs8E-2" target="rbe2yqdiVSbnE7vsVnZQ-19">
          <mxGeometry width="50" height="50" relative="1" as="geometry">
            <mxPoint x="490" y="456" as="sourcePoint" />
            <mxPoint x="420" y="531" as="targetPoint" />
            <Array as="points" />
          </mxGeometry>
        </mxCell>
        <mxCell id="fd8RUs7CUl5_DiuP1nIO-22" value="" style="endArrow=classic;html=1;rounded=0;strokeColor=light-dark(#000000,#000000);entryX=1.001;entryY=0.04;entryDx=0;entryDy=0;exitX=0;exitY=0.75;exitDx=0;exitDy=0;entryPerimeter=0;" edge="1" parent="1" source="_ydNGUtrwnxu__iHTs8E-2" target="rbe2yqdiVSbnE7vsVnZQ-8">
          <mxGeometry width="50" height="50" relative="1" as="geometry">
            <mxPoint x="290.03999999999996" y="507.6099999999999" as="sourcePoint" />
            <mxPoint x="265.26" y="683" as="targetPoint" />
          </mxGeometry>
        </mxCell>
        <mxCell id="fd8RUs7CUl5_DiuP1nIO-26" value="" style="endArrow=classic;html=1;rounded=0;strokeColor=light-dark(#000000,#000000);entryX=0;entryY=0.5;entryDx=0;entryDy=0;exitX=1;exitY=0.5;exitDx=0;exitDy=0;" edge="1" parent="1" source="_ydNGUtrwnxu__iHTs8E-9" target="fd8RUs7CUl5_DiuP1nIO-7">
          <mxGeometry width="50" height="50" relative="1" as="geometry">
            <mxPoint x="170" y="306" as="sourcePoint" />
            <mxPoint x="350" y="231" as="targetPoint" />
          </mxGeometry>
        </mxCell>
        <mxCell id="fd8RUs7CUl5_DiuP1nIO-28" value="" style="endArrow=classic;html=1;rounded=0;strokeColor=light-dark(#000000,#000000);entryX=0;entryY=1;entryDx=0;entryDy=0;exitX=1;exitY=1;exitDx=0;exitDy=0;" edge="1" parent="1" source="fd8RUs7CUl5_DiuP1nIO-7" target="rbe2yqdiVSbnE7vsVnZQ-19">
          <mxGeometry width="50" height="50" relative="1" as="geometry">
            <mxPoint x="640" y="1295" as="sourcePoint" />
            <mxPoint x="200" y="311" as="targetPoint" />
          </mxGeometry>
        </mxCell>
        <mxCell id="fd8RUs7CUl5_DiuP1nIO-31" value="" style="endArrow=classic;html=1;rounded=0;strokeColor=light-dark(#000000,#000000);exitX=1;exitY=0.5;exitDx=0;exitDy=0;entryX=0;entryY=0.5;entryDx=0;entryDy=0;" edge="1" parent="1" source="fd8RUs7CUl5_DiuP1nIO-10" target="fd8RUs7CUl5_DiuP1nIO-13">
          <mxGeometry width="50" height="50" relative="1" as="geometry">
            <mxPoint x="360" y="66" as="sourcePoint" />
            <mxPoint x="440" y="66" as="targetPoint" />
          </mxGeometry>
        </mxCell>
        <mxCell id="fd8RUs7CUl5_DiuP1nIO-32" value="" style="endArrow=classic;html=1;rounded=0;strokeColor=light-dark(#000000,#000000);entryX=0.5;entryY=0;entryDx=0;entryDy=0;exitX=1;exitY=0.5;exitDx=0;exitDy=0;" edge="1" parent="1" source="fd8RUs7CUl5_DiuP1nIO-15" target="rbe2yqdiVSbnE7vsVnZQ-16">
          <mxGeometry width="50" height="50" relative="1" as="geometry">
            <mxPoint x="640" y="216" as="sourcePoint" />
            <mxPoint x="750" y="318" as="targetPoint" />
          </mxGeometry>
        </mxCell>
        <mxCell id="fd8RUs7CUl5_DiuP1nIO-33" value="" style="endArrow=classic;html=1;rounded=0;strokeColor=light-dark(#000000,#000000);entryX=1;entryY=0;entryDx=0;entryDy=0;exitX=0;exitY=0.5;exitDx=0;exitDy=0;" edge="1" parent="1" source="fd8RUs7CUl5_DiuP1nIO-15" target="_ydNGUtrwnxu__iHTs8E-2">
          <mxGeometry width="50" height="50" relative="1" as="geometry">
            <mxPoint x="470" y="256" as="sourcePoint" />
            <mxPoint x="580" y="276" as="targetPoint" />
          </mxGeometry>
        </mxCell>
        <mxCell id="fd8RUs7CUl5_DiuP1nIO-35" value="" style="endArrow=classic;html=1;rounded=0;strokeColor=light-dark(#000000,#000000);entryX=1;entryY=0.25;entryDx=0;entryDy=0;exitX=0;exitY=0.75;exitDx=0;exitDy=0;" edge="1" parent="1" source="rbe2yqdiVSbnE7vsVnZQ-16" target="rbe2yqdiVSbnE7vsVnZQ-13">
          <mxGeometry width="50" height="50" relative="1" as="geometry">
            <mxPoint x="1310" y="810" as="sourcePoint" />
            <mxPoint x="650" y="953" as="targetPoint" />
          </mxGeometry>
        </mxCell>
        <mxCell id="rbe2yqdiVSbnE7vsVnZQ-13" value="Announcements" style="swimlane;fontStyle=0;childLayout=stackLayout;horizontal=1;startSize=30;horizontalStack=0;resizeParent=1;resizeParentMax=0;resizeLast=0;collapsible=1;marginBottom=0;whiteSpace=wrap;html=1;strokeColor=light-dark(#000000,#000000);fillColor=light-dark(#FFFFFF,#FFFFFF);fontColor=light-dark(#000000,#000000);" parent="1" vertex="1">
          <mxGeometry x="915" y="820" width="250" height="350" as="geometry" />
        </mxCell>
        <mxCell id="rbe2yqdiVSbnE7vsVnZQ-14" value="- ann_id: Int&lt;div&gt;- ann_title: String&lt;/div&gt;&lt;div&gt;- ann_description: String&lt;/div&gt;&lt;div&gt;- company_id: Int&lt;/div&gt;&lt;div&gt;- ann_date: Date&lt;/div&gt;&lt;div&gt;- company_name: String&lt;/div&gt;&lt;div&gt;- user_id: Int&lt;/div&gt;" style="text;strokeColor=light-dark(#000000,#000000);fillColor=light-dark(#FFFFFF,#FFFFFF);align=left;verticalAlign=middle;spacingLeft=4;spacingRight=4;overflow=hidden;points=[[0,0.5],[1,0.5]];portConstraint=eastwest;rotatable=0;whiteSpace=wrap;html=1;fontColor=light-dark(#000000,#000000);" parent="rbe2yqdiVSbnE7vsVnZQ-13" vertex="1">
          <mxGeometry y="30" width="250" height="110" as="geometry" />
        </mxCell>
        <mxCell id="rbe2yqdiVSbnE7vsVnZQ-15" value="+ getcompany_id()&lt;div&gt;+ setcompany_id(Int company_id)&lt;/div&gt;&lt;div&gt;+ getcompany_name()&lt;/div&gt;&lt;div&gt;+ setcompany_name(String company_name)&lt;/div&gt;&lt;div&gt;+ getuser_id()&lt;/div&gt;&lt;div&gt;+ setuser_id(Int user_id)&lt;/div&gt;&lt;div&gt;+ getann_id()&lt;/div&gt;&lt;div&gt;+ setann_id(Int ann_id)&lt;/div&gt;&lt;div&gt;+ getann_title()&lt;/div&gt;&lt;div&gt;+ setann_title(String ann_title)&lt;/div&gt;&lt;div&gt;+ getann_description()&lt;/div&gt;&lt;div&gt;+ setann_description(String description)&lt;/div&gt;&lt;div&gt;+ getann_date()&lt;/div&gt;&lt;div&gt;+ setann_date(Date ann_date)&lt;/div&gt;" style="text;strokeColor=light-dark(#000000,#000000);fillColor=light-dark(#FFFFFF,#FFFFFF);align=left;verticalAlign=middle;spacingLeft=4;spacingRight=4;overflow=hidden;points=[[0,0.5],[1,0.5]];portConstraint=eastwest;rotatable=0;whiteSpace=wrap;html=1;fontColor=light-dark(#000000,#000000);" parent="rbe2yqdiVSbnE7vsVnZQ-13" vertex="1">
          <mxGeometry y="140" width="250" height="210" as="geometry" />
        </mxCell>
        <mxCell id="fd8RUs7CUl5_DiuP1nIO-40" value="" style="endArrow=classic;html=1;rounded=0;strokeColor=light-dark(#000000,#000000);exitX=0;exitY=0.25;exitDx=0;exitDy=0;entryX=0.998;entryY=0.128;entryDx=0;entryDy=0;entryPerimeter=0;" edge="1" parent="1" source="rbe2yqdiVSbnE7vsVnZQ-16" target="rbe2yqdiVSbnE7vsVnZQ-12">
          <mxGeometry width="50" height="50" relative="1" as="geometry">
            <mxPoint x="800" y="920" as="sourcePoint" />
            <mxPoint x="1070" y="1070" as="targetPoint" />
          </mxGeometry>
        </mxCell>
        <mxCell id="fd8RUs7CUl5_DiuP1nIO-41" value="" style="endArrow=classic;html=1;rounded=0;strokeColor=light-dark(#000000,#000000);entryX=0.75;entryY=0;entryDx=0;entryDy=0;exitX=0.768;exitY=1.008;exitDx=0;exitDy=0;exitPerimeter=0;" edge="1" parent="1" source="rbe2yqdiVSbnE7vsVnZQ-18" target="rbe2yqdiVSbnE7vsVnZQ-22">
          <mxGeometry width="50" height="50" relative="1" as="geometry">
            <mxPoint x="1510" y="920" as="sourcePoint" />
            <mxPoint x="1300" y="920" as="targetPoint" />
          </mxGeometry>
        </mxCell>
        <mxCell id="fd8RUs7CUl5_DiuP1nIO-42" value="" style="endArrow=classic;html=1;rounded=0;strokeColor=light-dark(#000000,#000000);exitX=0.166;exitY=0.995;exitDx=0;exitDy=0;entryX=1;entryY=0.25;entryDx=0;entryDy=0;exitPerimeter=0;" edge="1" parent="1" source="rbe2yqdiVSbnE7vsVnZQ-18" target="rbe2yqdiVSbnE7vsVnZQ-19">
          <mxGeometry width="50" height="50" relative="1" as="geometry">
            <mxPoint x="1381" y="956" as="sourcePoint" />
            <mxPoint x="1280" y="940" as="targetPoint" />
          </mxGeometry>
        </mxCell>
        <mxCell id="fd8RUs7CUl5_DiuP1nIO-44" value="&lt;font&gt;N:1&lt;/font&gt;" style="text;html=1;align=center;verticalAlign=middle;resizable=0;points=[];autosize=1;strokeColor=none;fillColor=none;fontColor=light-dark(#000000,#000000);fontSize=20;fontStyle=1" vertex="1" parent="1">
          <mxGeometry x="359" y="253" width="50" height="40" as="geometry" />
        </mxCell>
        <mxCell id="fd8RUs7CUl5_DiuP1nIO-46" value="&lt;font&gt;N:1&lt;/font&gt;" style="text;html=1;align=center;verticalAlign=middle;resizable=0;points=[];autosize=1;strokeColor=none;fillColor=none;fontColor=light-dark(#000000,#000000);fontSize=20;fontStyle=1" vertex="1" parent="1">
          <mxGeometry x="290" y="517" width="50" height="40" as="geometry" />
        </mxCell>
        <mxCell id="fd8RUs7CUl5_DiuP1nIO-47" value="&lt;font&gt;N:1&lt;/font&gt;" style="text;html=1;align=center;verticalAlign=middle;resizable=0;points=[];autosize=1;strokeColor=none;fillColor=none;fontColor=light-dark(#000000,#000000);fontSize=20;fontStyle=1" vertex="1" parent="1">
          <mxGeometry x="292" y="713" width="50" height="40" as="geometry" />
        </mxCell>
        <mxCell id="fd8RUs7CUl5_DiuP1nIO-49" value="&lt;font&gt;N:1&lt;/font&gt;" style="text;html=1;align=center;verticalAlign=middle;resizable=0;points=[];autosize=1;strokeColor=none;fillColor=none;fontColor=light-dark(#000000,#000000);fontSize=20;fontStyle=1" vertex="1" parent="1">
          <mxGeometry x="280" y="960" width="50" height="40" as="geometry" />
        </mxCell>
        <mxCell id="fd8RUs7CUl5_DiuP1nIO-50" value="&lt;font&gt;1:1&lt;/font&gt;" style="text;html=1;align=center;verticalAlign=middle;resizable=0;points=[];autosize=1;strokeColor=none;fillColor=none;fontColor=light-dark(#000000,#000000);fontSize=20;fontStyle=1" vertex="1" parent="1">
          <mxGeometry x="296" y="1149" width="50" height="40" as="geometry" />
        </mxCell>
        <mxCell id="fd8RUs7CUl5_DiuP1nIO-52" value="&lt;font&gt;N:1&lt;/font&gt;" style="text;html=1;align=center;verticalAlign=middle;resizable=0;points=[];autosize=1;strokeColor=none;fillColor=none;fontColor=light-dark(#000000,#000000);fontSize=20;fontStyle=1" vertex="1" parent="1">
          <mxGeometry x="755" y="1302" width="50" height="40" as="geometry" />
        </mxCell>
        <mxCell id="fd8RUs7CUl5_DiuP1nIO-53" value="&lt;font&gt;1:N&lt;/font&gt;" style="text;html=1;align=center;verticalAlign=middle;resizable=0;points=[];autosize=1;strokeColor=none;fillColor=none;fontColor=light-dark(#000000,#000000);fontSize=20;fontStyle=1" vertex="1" parent="1">
          <mxGeometry x="762" y="1030" width="50" height="40" as="geometry" />
        </mxCell>
        <mxCell id="fd8RUs7CUl5_DiuP1nIO-55" value="&lt;font&gt;N:M&lt;/font&gt;" style="text;html=1;align=center;verticalAlign=middle;resizable=0;points=[];autosize=1;strokeColor=none;fillColor=none;fontColor=light-dark(#000000,#000000);fontSize=20;fontStyle=1" vertex="1" parent="1">
          <mxGeometry x="754" y="875" width="60" height="40" as="geometry" />
        </mxCell>
        <mxCell id="fd8RUs7CUl5_DiuP1nIO-56" value="&lt;font&gt;N:M&lt;/font&gt;" style="text;html=1;align=center;verticalAlign=middle;resizable=0;points=[];autosize=1;strokeColor=none;fillColor=none;fontColor=light-dark(#000000,#000000);fontSize=20;fontStyle=1" vertex="1" parent="1">
          <mxGeometry x="717" y="609" width="60" height="40" as="geometry" />
        </mxCell>
        <mxCell id="fd8RUs7CUl5_DiuP1nIO-57" value="&lt;font&gt;1:N&lt;/font&gt;" style="text;html=1;align=center;verticalAlign=middle;resizable=0;points=[];autosize=1;strokeColor=none;fillColor=none;fontColor=light-dark(#000000,#000000);fontSize=20;fontStyle=1" vertex="1" parent="1">
          <mxGeometry x="1544" y="940" width="50" height="40" as="geometry" />
        </mxCell>
        <mxCell id="fd8RUs7CUl5_DiuP1nIO-58" value="&lt;font&gt;N:1&lt;/font&gt;" style="text;html=1;align=center;verticalAlign=middle;resizable=0;points=[];autosize=1;strokeColor=none;fillColor=none;fontColor=light-dark(#000000,#000000);fontSize=20;fontStyle=1" vertex="1" parent="1">
          <mxGeometry x="1250" y="827" width="50" height="40" as="geometry" />
        </mxCell>
        <mxCell id="fd8RUs7CUl5_DiuP1nIO-59" value="&lt;font&gt;N:1&lt;/font&gt;" style="text;html=1;align=center;verticalAlign=middle;resizable=0;points=[];autosize=1;strokeColor=none;fillColor=none;fontColor=light-dark(#000000,#000000);fontSize=20;fontStyle=1" vertex="1" parent="1">
          <mxGeometry x="1199" y="1149" width="50" height="40" as="geometry" />
        </mxCell>
        <mxCell id="fd8RUs7CUl5_DiuP1nIO-60" value="&lt;font&gt;M:N&lt;/font&gt;" style="text;html=1;align=center;verticalAlign=middle;resizable=0;points=[];autosize=1;strokeColor=none;fillColor=none;fontColor=light-dark(#000000,#000000);fontSize=20;fontStyle=1" vertex="1" parent="1">
          <mxGeometry x="1270" y="541" width="60" height="40" as="geometry" />
        </mxCell>
        <mxCell id="fd8RUs7CUl5_DiuP1nIO-61" value="&lt;font&gt;1:1&lt;/font&gt;&lt;span style=&quot;color: rgba(0, 0, 0, 0); font-family: monospace; font-size: 0px; font-weight: 400; text-align: start;&quot;&gt;%3CmxGraphModel%3E%3Croot%3E%3CmxCell%20id%3D%220%22%2F%3E%3CmxCell%20id%3D%221%22%20parent%3D%220%22%2F%3E%3CmxCell%20id%3D%222%22%20value%3D%22%26lt%3Bfont%26gt%3B1%3AN%26lt%3B%2Ffont%26gt%3B%22%20style%3D%22text%3Bhtml%3D1%3Balign%3Dcenter%3BverticalAlign%3Dmiddle%3Bresizable%3D0%3Bpoints%3D%5B%5D%3Bautosize%3D1%3BstrokeColor%3Dnone%3BfillColor%3Dnone%3BfontColor%3Dlight-dark(%23000000%2C%23000000)%3BfontSize%3D20%3BfontStyle%3D1%22%20vertex%3D%221%22%20parent%3D%221%22%3E%3CmxGeometry%20x%3D%221544%22%20y%3D%22940%22%20width%3D%2250%22%20height%3D%2240%22%20as%3D%22geometry%22%2F%3E%3C%2FmxCell%3E%3C%2Froot%3E%3C%2FmxGraphModel%3E&lt;/span&gt;" style="text;html=1;align=center;verticalAlign=middle;resizable=0;points=[];autosize=1;strokeColor=none;fillColor=none;fontColor=light-dark(#000000,#000000);fontSize=20;fontStyle=1" vertex="1" parent="1">
          <mxGeometry x="1310" y="293" width="50" height="40" as="geometry" />
        </mxCell>
        <mxCell id="fd8RUs7CUl5_DiuP1nIO-62" value="&lt;font&gt;1:1&lt;/font&gt;&lt;span style=&quot;color: rgba(0, 0, 0, 0); font-family: monospace; font-size: 0px; font-weight: 400; text-align: start;&quot;&gt;%3CmxGraphModel%3E%3Croot%3E%3CmxCell%20id%3D%220%22%2F%3E%3CmxCell%20id%3D%221%22%20parent%3D%220%22%2F%3E%3CmxCell%20id%3D%222%22%20value%3D%22%26lt%3Bfont%26gt%3B1%3AN%26lt%3B%2Ffont%26gt%3B%22%20style%3D%22text%3Bhtml%3D1%3Balign%3Dcenter%3BverticalAlign%3Dmiddle%3Bresizable%3D0%3Bpoints%3D%5B%5D%3Bautosize%3D1%3BstrokeColor%3Dnone%3BfillColor%3Dnone%3BfontColor%3Dlight-dark(%23000000%2C%23000000)%3BfontSize%3D20%3BfontStyle%3D1%22%20vertex%3D%221%22%20parent%3D%221%22%3E%3CmxGeometry%20x%3D%221544%22%20y%3D%22940%22%20width%3D%2250%22%20height%3D%2240%22%20as%3D%22geometry%22%2F%3E%3C%2FmxCell%3E%3C%2Froot%3E%3C%2FmxGraphModel%3E&lt;/span&gt;" style="text;html=1;align=center;verticalAlign=middle;resizable=0;points=[];autosize=1;strokeColor=none;fillColor=none;fontColor=light-dark(#000000,#000000);fontSize=20;fontStyle=1" vertex="1" parent="1">
          <mxGeometry x="704" y="310" width="50" height="40" as="geometry" />
        </mxCell>
        <mxCell id="fd8RUs7CUl5_DiuP1nIO-63" value="&lt;font&gt;1:1&lt;/font&gt;&lt;span style=&quot;color: rgba(0, 0, 0, 0); font-family: monospace; font-size: 0px; font-weight: 400; text-align: start;&quot;&gt;%3CmxGraphModel%3E%3Croot%3E%3CmxCell%20id%3D%220%22%2F%3E%3CmxCell%20id%3D%221%22%20parent%3D%220%22%2F%3E%3CmxCell%20id%3D%222%22%20value%3D%22%26lt%3Bfont%26gt%3B1%3AN%26lt%3B%2Ffont%26gt%3B%22%20style%3D%22text%3Bhtml%3D1%3Balign%3Dcenter%3BverticalAlign%3Dmiddle%3Bresizable%3D0%3Bpoints%3D%5B%5D%3Bautosize%3D1%3BstrokeColor%3Dnone%3BfillColor%3Dnone%3BfontColor%3Dlight-dark(%23000000%2C%23000000)%3BfontSize%3D20%3BfontStyle%3D1%22%20vertex%3D%221%22%20parent%3D%221%22%3E%3CmxGeometry%20x%3D%221544%22%20y%3D%22940%22%20width%3D%2250%22%20height%3D%2240%22%20as%3D%22geometry%22%2F%3E%3C%2FmxCell%3E%3C%2Froot%3E%3C%2FmxGraphModel%3E&lt;/span&gt;" style="text;html=1;align=center;verticalAlign=middle;resizable=0;points=[];autosize=1;strokeColor=none;fillColor=none;fontColor=light-dark(#000000,#000000);fontSize=20;fontStyle=1" vertex="1" parent="1">
          <mxGeometry x="790" y="150" width="50" height="40" as="geometry" />
        </mxCell>
      </root>
    </mxGraphModel>
  </diagram>
</mxfile>
